HIERARCHY
ROOT Hips
{
  OFFSET -213.699 104.721 0.752556
  CHANNELS 6 Xposition Yposition Zposition Zrotation Xrotation Yrotation
  JOINT RightUpLeg
  {
    OFFSET -8.9458 -8.66707 0.101652
    CHANNELS 3 Zrotation Xrotation Yrotation
    JOINT RightLeg
    {
      OFFSET 0 -44.4227 1.3727
      CHANNELS 3 Zrotation Xrotation Yrotation
      JOINT RightFoot
      {
        OFFSET 0.253549 -42.0924 -1.46059
        CHANNELS 3 Zrotation Xrotation Yrotation
        JOINT RightToes
        {
          OFFSET 0.04 -4.41509 8.4991
          CHANNELS 3 Zrotation Xrotation Yrotation
          End Site
          {
            OFFSET -0.08 -0.137448 9.77979
          }
        }
      }
    }
  }
  JOINT Spine
  {
    OFFSET 0 11.8905 0
    CHANNELS 3 Zrotation Xrotation Yrotation
    JOINT Spine1
    {
      OFFSET 0 25.6574 0.127663
      CHANNELS 3 Zrotation Xrotation Yrotation
      JOINT HEad
      {
        OFFSET 0 8.73416 0.011341
        CHANNELS 3 Zrotation Xrotation Yrotation
        End Site
        {
          OFFSET -0.29 12.7742 2.51395
        }
      }
      JOINT LeftShoulder1
      {
        OFFSET 8.99 -0.362252 -0.22
        CHANNELS 3 Zrotation Xrotation Yrotation
        JOINT LeftArm
        {
          OFFSET 10.2827 -0.00337999 0.322123
          CHANNELS 3 Zrotation Xrotation Yrotation
          JOINT LeftForeArm
          {
            OFFSET 26.2597 0.099144 -1.42434
            CHANNELS 3 Zrotation Xrotation Yrotation
            JOINT LeftHand
            {
              OFFSET 22.0902 0.085362 1.02216
              CHANNELS 3 Zrotation Xrotation Yrotation
              End Site
              {
                OFFSET 13.419 -0.6 1.50291
              }
            }
          }
        }
      }
      JOINT RightShoulder
      {
        OFFSET -8.99 -0.362252 -0.22
        CHANNELS 3 Zrotation Xrotation Yrotation
        JOINT RightArm
        {
          OFFSET -10.2827 -0.00338 0.322123
          CHANNELS 3 Zrotation Xrotation Yrotation
          JOINT RightForeArm
          {
            OFFSET -26.364 0.099144 -1.42434
            CHANNELS 3 Zrotation Xrotation Yrotation
            JOINT RightHand
            {
              OFFSET -22.0324 0.085362 1.02216
              CHANNELS 3 Zrotation Xrotation Yrotation
              End Site
              {
                OFFSET -13.3284 -0.6 1.50291
              }
            }
          }
        }
      }
    }
  }
  JOINT LeftUpLeg
  {
    OFFSET 8.9458 -8.66707 0.101652
    CHANNELS 3 Zrotation Xrotation Yrotation
    JOINT LeftLeg
    {
      OFFSET 0 -44.4227 1.3727
      CHANNELS 3 Zrotation Xrotation Yrotation
      JOINT LeftFoot
      {
        OFFSET -0.253549 -42.0924 -1.46059
        CHANNELS 3 Zrotation Xrotation Yrotation
        JOINT LeftToes
        {
          OFFSET -0.04 -4.41509 8.4991
          CHANNELS 3 Zrotation Xrotation Yrotation
          End Site
          {
            OFFSET 0.08 -0.047448 9.77979
          }
        }
      }
    }
  }
}
MOTION
Frames:	7
Frame Time:	0.0333333
189.373 101.078 -88.1161 3.20412 0.816323 93.8856 5.10957 -8.66985 -0.33014 3.39716 14.5951 -34.1036 -7.97693 -3.90015 0.116555 0.0462048 0.000530889 0.662642 -6.40691 6.14405 -1.31167 4.88309 5.09572 -2.74069 0.74316 5.6772 -15.6585 -31.1446 -3.49562 12.8842 -81.2722 -45.7892 -38.5857 -171.924 66.9368 176.204 8.84259 9.00489 -7.50339 30.3507 -1.17718 -7.33178 51.0841 -25.5141 14.409 9.21434 65.3742 3.83882 -2.35627 9.79357 2.40446 0.174696 -1.19933 30.915 1.58289 32.1651 21.3512 -10.9801 -9.01442 -0.0874857 -1.32313e-009 8.75226e-006 -1.46812e-008 
190.494 101.012 -88.4861 3.80253 0.0838757 90.2785 5.46818 -7.68375 -0.0239754 2.8479 15.556 -30.606 -7.26181 -4.73452 0.034305 0.0462048 0.000530889 0.662642 -5.50103 6.10475 -1.2305 4.71223 5.11708 -2.51452 0.258369 6.46295 -15.4527 -31.0409 -3.39902 12.6516 -80.8359 -45.4003 -37.9895 -171.934 66.882 175.683 9.34251 8.9253 -7.82787 29.8994 -1.14705 -7.29541 51.1166 -24.4151 14.0285 8.2111 64.1819 5.42854 -2.23781 9.80085 2.46501 2.72932 -3.41252 31.7216 1.29571 40.1509 19.7421 -8.18308 -4.38729 0.208269 -1.32313e-009 8.75226e-006 -1.46812e-008 
191.449 100.689 -88.9173 4.36731 0.172201 86.5078 6.0193 -7.52345 -0.315057 2.2472 17.9605 -26.4784 -6.45041 -6.01231 -0.0665837 0.0462048 0.000530889 0.662642 -4.42014 6.62516 -1.39848 4.76113 4.97187 -2.56825 -0.168602 6.50292 -14.9403 -31.106 -3.44656 12.7627 -80.2192 -44.8124 -37.6199 -171.654 67.632 174.621 9.64213 8.87594 -8.02589 29.9585 -1.15937 -7.32325 50.6409 -22.7802 14.2303 7.41526 62.7277 6.97132 -2.13978 9.80452 2.78298 5.21091 -6.45858 30.8381 1.36131 48.3228 17.7494 -0.726075 1.658 0.0209803 -1.32313e-009 8.75226e-006 -1.46812e-008 
192.171 100.096 -89.4602 4.67863 -0.955438 82.5047 6.74885 -8.38944 -1.05131 1.36533 21.7206 -21.8455 -5.59718 -7.63017 -0.170196 0.0462048 0.000530889 0.662642 -3.28705 7.44907 -1.5688 5.04827 4.89268 -2.6384 -0.456313 5.9745 -14.32 -31.1364 -3.54111 13.0083 -80.4206 -44.1766 -37.9999 -171.056 69.0072 173.589 9.58527 8.88075 -8.04934 30.2798 -1.21732 -7.44926 50.5822 -22.1165 15.4364 6.74651 62.5554 7.88051 -1.82557 9.82456 3.04277 6.97958 -9.83754 28.351 1.41775 55.4811 14.6916 5.11631 5.55502 -0.614986 -1.32313e-009 8.75226e-006 -1.46812e-008 
192.891 99.6924 -90.13 4.83462 -1.44081 77.9694 7.05402 -8.92805 -1.18534 0.379537 24.3917 -17.1918 -5.00093 -8.81925 -0.231045 0.0462048 0.000530889 0.662642 -2.65826 8.1256 -1.54107 5.20914 4.82816 -2.53068 -0.447721 5.83615 -14.0241 -31.0143 -3.55063 13.0646 -81.3096 -43.7896 -38.7413 -170.597 70.0209 173.237 9.47395 8.8943 -8.04228 30.5242 -1.27244 -7.57386 51.0035 -22.1937 16.8608 6.18404 62.8111 8.38615 -1.73496 9.83175 2.97895 7.35953 -12.5745 24.9914 1.39754 60.1596 10.7949 5.96046 5.38658 -0.728633 -1.32313e-009 8.75226e-006 -1.46812e-008 
193.824 99.7001 -90.8873 5.02594 -1.57319 73.0493 6.75552 -8.44999 -0.149431 -0.2604 25.1151 -12.9173 -4.62634 -9.29486 -0.249558 0.0462048 0.000530889 0.662642 -2.39165 8.36459 -1.41589 4.96175 4.83864 -2.30453 -0.0177506 6.65723 -14.2948 -30.8959 -3.50748 12.9788 -82.1179 -43.7328 -39.3069 -170.59 70.1746 173.592 9.46561 8.89354 -8.06563 30.6806 -1.30511 -7.64547 51.4145 -22.2254 17.8799 6.074 62.3349 8.44394 -2.23735 9.79674 2.84638 6.49217 -14.2377 20.9626 1.24283 61.8253 7.47031 4.47556 2.88222 -0.445131 -1.32313e-009 8.75226e-006 -1.46812e-008 
194.945 99.9279 -91.6764 5.1612 -1.74022 67.8439 6.27379 -7.48717 1.36684 -0.707043 24.7733 -8.77481 -4.14 -9.2915 -0.242293 0.0462048 0.000530889 0.662642 -1.99442 8.26717 -1.33944 4.43903 4.96145 -2.07937 0.689077 8.01581 -14.9297 -30.8955 -3.49842 12.9546 -82.4671 -43.8811 -39.4987 -170.769 69.9027 174.066 9.3937 8.90355 -8.04383 30.8648 -1.36616 -7.78998 51.8521 -22.4883 18.7707 6.183 62.0197 8.18239 -2.70314 9.76297 2.90442 5.04823 -15.1722 16.2432 1.06715 61.1194 5.84374 3.9808 0.737202 -0.309823 -1.32313e-009 8.75226e-006 -1.46812e-008 
